<svg width="216" height="64" viewBox="0 0 216 64" fill="none" xmlns="http://www.w3.org/2000/svg">
<g clip-path="url(#clip0)">
<path d="M208 64H8C3.6 64 0 60.4 0 56V8C0 3.6 3.6 1.43051e-06 8 1.43051e-06H208C212.4 1.43051e-06 216 3.6 216 8V56C216 60.4 212.4 64 208 64Z" fill="black"/>
<path d="M208 1.43051e-06H8C3.6 1.43051e-06 0 3.6 0 8V56C0 60.4 3.6 64 8 64H208C212.4 64 216 60.4 216 56V8C216 3.6 212.4 1.43051e-06 208 1.43051e-06ZM208 1.28C211.706 1.28 214.72 4.29504 214.72 8V56C214.72 59.7056 211.706 62.7206 208 62.7206H8C4.29504 62.7206 1.28064 59.7056 1.28064 56V8C1.28064 4.29504 4.29504 1.28 8 1.28H208Z" fill="#A6A6A6"/>
<path d="M157.824 32H160.432V14.5164H157.824V32ZM181.33 20.8144L178.338 28.3944H178.248L175.144 20.8144H172.331L176.987 31.4088L174.333 37.302H177.055L184.231 20.8144H181.33ZM166.528 30.0144C165.674 30.0144 164.482 29.5869 164.482 28.5295C164.482 27.18 165.967 26.6626 167.248 26.6626C168.395 26.6626 168.935 26.91 169.632 27.2476C169.431 28.8669 168.035 30.0144 166.528 30.0144ZM166.843 20.4319C164.954 20.4319 162.997 21.2644 162.187 23.1088L164.504 24.0764C164.999 23.1088 165.922 22.7938 166.888 22.7938C168.239 22.7938 169.61 23.6037 169.632 25.0432V25.2232C169.16 24.9532 168.147 24.5482 166.911 24.5482C164.415 24.5482 161.872 25.9207 161.872 28.4844C161.872 30.8237 163.919 32.3306 166.213 32.3306C167.968 32.3306 168.935 31.5437 169.543 30.6213H169.632V31.9712H172.152V25.2682C172.152 22.1637 169.835 20.4319 166.843 20.4319V20.4319ZM150.715 22.9432H147.005V16.95H150.715C152.667 16.95 153.775 18.565 153.775 19.9463C153.775 21.3013 152.667 22.9432 150.715 22.9432V22.9432ZM150.648 14.5164H144.395V32H147.005V25.3764H150.648C153.541 25.3764 156.384 23.282 156.384 19.9463C156.384 16.6106 153.541 14.5164 150.648 14.5164V14.5164ZM116.551 30.0175C114.748 30.0175 113.238 28.5082 113.238 26.4351C113.238 24.3394 114.748 22.8076 116.551 22.8076C118.33 22.8076 119.728 24.3394 119.728 26.4351C119.728 28.5082 118.33 30.0175 116.551 30.0175ZM119.547 21.7938H119.457C118.871 21.0951 117.744 20.4644 116.325 20.4644C113.351 20.4644 110.624 23.0781 110.624 26.4351C110.624 29.7695 113.351 32.3607 116.325 32.3607C117.744 32.3607 118.871 31.73 119.457 31.0088H119.547V31.865C119.547 34.1407 118.33 35.3575 116.37 35.3575C114.771 35.3575 113.779 34.2082 113.374 33.2394L111.098 34.1856C111.751 35.7632 113.486 37.7007 116.37 37.7007C119.435 37.7007 122.026 35.8981 122.026 31.5044V20.8244H119.547V21.7938ZM123.828 32H126.441V14.5164H123.828V32ZM130.295 26.2319C130.227 23.9344 132.075 22.7626 133.404 22.7626C134.44 22.7626 135.319 23.2807 135.612 24.0244L130.295 26.2319ZM138.406 24.2495C137.91 22.92 136.401 20.4644 133.314 20.4644C130.25 20.4644 127.703 22.8751 127.703 26.4125C127.703 29.7469 130.227 32.3607 133.606 32.3607C136.333 32.3607 137.91 30.6932 138.563 29.7244L136.536 28.3725C135.859 29.3644 134.936 30.0175 133.606 30.0175C132.277 30.0175 131.331 29.4095 130.723 28.2151L138.676 24.9256L138.406 24.2495ZM75.0401 22.2895V24.8125H81.0782C80.8982 26.2319 80.4251 27.2688 79.7038 27.9895C78.8251 28.8682 77.4507 29.8375 75.0401 29.8375C71.3227 29.8375 68.4158 26.8407 68.4158 23.1232C68.4158 19.405 71.3227 16.4088 75.0401 16.4088C77.0451 16.4088 78.5102 17.1968 79.5913 18.2112L81.3713 16.4312C79.862 14.9895 77.8564 13.885 75.0401 13.885C69.9483 13.885 65.667 18.0306 65.667 23.1232C65.667 28.2151 69.9483 32.3607 75.0401 32.3607C77.7889 32.3607 79.862 31.4594 81.4838 29.7695C83.1513 28.1026 83.6696 25.7588 83.6696 23.8663C83.6696 23.2807 83.6244 22.74 83.5345 22.2895H75.0401ZM90.5345 30.0175C88.7313 30.0175 87.1769 28.5306 87.1769 26.4125C87.1769 24.2719 88.7313 22.8076 90.5345 22.8076C92.3369 22.8076 93.8913 24.2719 93.8913 26.4125C93.8913 28.5306 92.3369 30.0175 90.5345 30.0175ZM90.5345 20.4644C87.2444 20.4644 84.5633 22.965 84.5633 26.4125C84.5633 29.8375 87.2444 32.3607 90.5345 32.3607C93.8238 32.3607 96.5051 29.8375 96.5051 26.4125C96.5051 22.965 93.8238 20.4644 90.5345 20.4644ZM103.559 30.0175C101.757 30.0175 100.202 28.5306 100.202 26.4125C100.202 24.2719 101.757 22.8076 103.559 22.8076C105.362 22.8076 106.916 24.2719 106.916 26.4125C106.916 28.5306 105.362 30.0175 103.559 30.0175ZM103.559 20.4644C100.27 20.4644 97.5889 22.965 97.5889 26.4125C97.5889 29.8375 100.27 32.3607 103.559 32.3607C106.849 32.3607 109.53 29.8375 109.53 26.4125C109.53 22.965 106.849 20.4644 103.559 20.4644Z" fill="white"/>
<path d="M16.8157 51.823L16.6968 51.7092C16.2312 51.2166 15.9563 50.4516 15.9563 49.4611V49.6942V14.3086C15.9563 14.3054 15.9563 14.303 15.9563 14.3004C15.9563 14.3035 15.9563 14.306 15.9563 14.3092V14.543C15.9563 13.4704 16.2768 12.6624 16.8137 12.1779L36.6374 32.0011L16.8157 51.823ZM15.9563 14.2985C15.9563 14.2104 15.9587 14.1248 15.9632 14.0404C15.9587 14.1241 15.9563 14.2104 15.9563 14.2985ZM15.9632 14.0366C15.9632 14.0355 15.9632 14.0342 15.9637 14.0329C15.9632 14.0342 15.9632 14.0355 15.9632 14.0366ZM15.9637 14.0254C15.9637 14.0248 15.9637 14.0241 15.9637 14.0235C15.9637 14.0241 15.9637 14.0248 15.9637 14.0254Z" fill="url(#paint0_linear)"/>
<path d="M43.2443 38.8457L43.395 38.7601L51.2237 34.3119C51.9701 33.8876 52.4675 33.3732 52.7157 32.8289C52.4682 33.3732 51.9706 33.8883 51.2237 34.3126L43.395 38.7607L43.2443 38.8457V38.8457ZM43.2463 38.6113L36.6375 32.0014L43.2456 25.3926L51.2237 29.9251C52.2368 30.5007 52.8056 31.2427 52.9007 32.0007C52.9007 32.0014 52.9007 32.0027 52.9007 32.0038C52.8056 32.7601 52.2368 33.5027 51.2237 34.0782L43.2463 38.6113" fill="url(#paint1_linear)"/>
<path d="M18.2287 52.5784C17.6749 52.5784 17.1917 52.3984 16.8149 52.0584L16.8156 52.0577C17.1924 52.3977 17.6762 52.5784 18.23 52.5784C18.278 52.5784 18.3268 52.5771 18.3762 52.5747C18.3261 52.5771 18.2767 52.5784 18.2287 52.5784V52.5784ZM18.2293 52.344C17.6756 52.3446 17.1924 52.164 16.8156 51.824V51.8235L36.6374 32.0016L43.2461 38.6115L20.0218 51.8072C19.3793 52.1715 18.7705 52.344 18.2293 52.344V52.344ZM16.81 52.054C16.7749 52.0222 16.7405 51.9884 16.7068 51.9534L16.81 52.054Z" fill="url(#paint2_linear)"/>
<path d="M36.6374 32.0015L16.8137 12.1783C17.1905 11.8389 17.6731 11.6589 18.2262 11.6589C18.7688 11.6589 19.378 11.832 20.0219 12.197L43.2456 25.3927L36.6374 32.0015V32.0015ZM43.395 25.2434L20.0219 11.9634C19.378 11.5983 18.7688 11.4251 18.2262 11.4251C18.2236 11.4251 18.2219 11.4251 18.2193 11.4251C18.2225 11.4251 18.2249 11.4251 18.2288 11.4251C18.77 11.4251 19.3787 11.5976 20.0219 11.9627L43.395 25.2434V25.2434Z" fill="url(#paint3_linear)"/>
<path d="M18.3763 52.5742C18.8793 52.5454 19.4363 52.3723 20.0219 52.0405L43.2443 38.8454L20.0219 52.0405C19.4368 52.3729 18.8793 52.5454 18.3763 52.5742V52.5742ZM16.815 52.0579L16.8101 52.0536C16.8118 52.0549 16.8137 52.0566 16.815 52.0579ZM16.7069 51.9529L16.6968 51.943V51.9424C16.7006 51.9461 16.7037 51.9497 16.7069 51.9529Z" fill="black"/>
<path d="M43.2441 38.8457L43.3949 38.7601L43.2441 38.8457Z" fill="url(#paint4_linear)"/>
<path d="M18.2301 52.5784C17.6763 52.5784 17.1925 52.3977 16.8157 52.0577L16.815 52.0584C16.8137 52.0571 16.8118 52.0553 16.8101 52.054L16.7069 51.9534C16.7037 51.9502 16.7006 51.9465 16.6968 51.9428L16.8157 51.824C17.1925 52.164 17.6757 52.3446 18.2294 52.344C18.7705 52.344 19.3793 52.1715 20.0219 51.8072L43.2462 38.6115L43.395 38.7603L43.2443 38.8459L20.0219 52.0409C19.4363 52.3728 18.8793 52.5459 18.3763 52.5747C18.3269 52.5771 18.2781 52.5784 18.2301 52.5784" fill="url(#paint5_linear)"/>
<path d="M16.6968 51.9431C16.2312 51.4505 15.9563 50.6855 15.9563 49.695V49.6943C15.9563 50.6855 16.2312 51.4498 16.6968 51.9425V51.9431" fill="black"/>
<path d="M16.6968 51.9426C16.2312 51.45 15.9563 50.6857 15.9563 49.6945V49.4613C15.9563 50.4519 16.2312 51.2169 16.6968 51.7095L16.8157 51.8233L16.6968 51.9426" fill="url(#paint6_linear)"/>
<path d="M16.6968 51.9426L16.8157 51.8233V51.8237L16.6968 51.9426" fill="url(#paint7_linear)"/>
<path d="M52.7156 32.8286C52.8386 32.5585 52.9005 32.2811 52.9005 32.0035C52.9005 32.003 52.9005 32.0024 52.9005 32.0024C52.9005 32.2805 52.8386 32.5579 52.7156 32.8286Z" fill="black"/>
<path d="M43.3951 38.7603L43.2463 38.6115L51.2238 34.0783C52.2369 33.5028 52.8057 32.7603 52.9007 32.0039C52.9007 32.2815 52.8388 32.559 52.7158 32.8291C52.4676 33.3734 51.9702 33.8878 51.2238 34.3121L43.3951 38.7603Z" fill="url(#paint8_linear)"/>
<path d="M52.9008 32.0015V32.0008C52.9001 31.1639 52.3408 30.3271 51.2238 29.692L43.3952 25.2439H43.3945L43.3952 25.2434L51.2238 29.6914C52.3421 30.3264 52.9021 31.1645 52.9008 32.0015Z" fill="#404040"/>
<path d="M52.9006 32.0007C52.8056 31.2427 52.2368 30.5007 51.2237 29.9251L43.2456 25.3926L43.3944 25.2438H43.395L51.2237 29.6919C52.3406 30.327 52.9 31.1638 52.9006 32.0007Z" fill="url(#paint9_linear)"/>
<path d="M15.9563 14.3008C15.9563 14.3001 15.9563 14.2995 15.9563 14.2989C15.9563 14.2995 15.9563 14.3001 15.9563 14.3008ZM15.9632 14.0408C15.9632 14.0395 15.9632 14.0382 15.9632 14.0369C15.9632 14.0382 15.9632 14.0395 15.9632 14.0408ZM15.9637 14.0333C15.9637 14.0307 15.9637 14.0283 15.9637 14.0257C15.9637 14.0283 15.9637 14.0307 15.9637 14.0333ZM15.9637 14.0238C16.0563 12.3801 16.9501 11.4307 18.2144 11.4251C17.6662 11.4283 17.1888 11.6083 16.815 11.9451V11.9445L16.8105 11.9489C16.7712 11.9845 16.7337 12.0221 16.6968 12.0608C16.2768 12.5051 16.0118 13.1707 15.9637 14.0238Z" fill="#404040"/>
<path d="M15.9563 14.5435V14.3097C15.9563 14.3065 15.9563 14.3039 15.9563 14.3009C15.9563 14.3003 15.9563 14.2996 15.9563 14.299C15.9563 14.2108 15.9587 14.1246 15.9632 14.0409C15.9632 14.0396 15.9632 14.0383 15.9632 14.0371C15.9632 14.0359 15.9632 14.0347 15.9637 14.0334C15.9637 14.0308 15.9637 14.0284 15.9637 14.0259C15.9637 14.0252 15.9637 14.0246 15.9637 14.0239C16.0118 13.1708 16.2768 12.5052 16.6968 12.0609L16.8137 12.1783C16.2768 12.6628 15.9563 13.4708 15.9563 14.5435V14.5435ZM16.8105 11.9491L16.815 11.9446C16.8137 11.9465 16.8118 11.9478 16.8105 11.9491Z" fill="url(#paint10_linear)"/>
<path d="M43.2456 25.3926L20.0219 12.1969C19.3781 11.8319 18.7688 11.6588 18.2262 11.6588C17.6731 11.6588 17.1905 11.8388 16.8137 12.1782L16.6968 12.0607C16.7337 12.022 16.7712 11.9844 16.8105 11.9489C16.8118 11.9476 16.8137 11.9463 16.815 11.9451C17.1888 11.6083 17.6662 11.4283 18.2144 11.4251C18.2157 11.4251 18.2174 11.4251 18.2193 11.4251C18.2219 11.4251 18.2237 11.4251 18.2262 11.4251C18.7688 11.4251 19.3781 11.5982 20.0219 11.9633L43.395 25.2433L43.3944 25.2438L43.2456 25.3926Z" fill="url(#paint11_linear)"/>
<path d="M77.7849 46.7031L77.0362 47.0487C76.6905 46.3562 76.2724 45.6511 75.8118 45.0467L76.5318 44.7155C76.8774 45.1904 77.4399 46.0687 77.7849 46.7031ZM76.1431 47.3218L75.4087 47.6674C75.0774 46.9767 74.6593 46.228 74.2274 45.6373L74.9618 45.3205C75.293 45.7955 75.8406 46.6893 76.1431 47.3218V47.3218ZM66.8812 43.2448C67.8167 43.1592 70.5105 42.8999 73.1324 42.6687C74.6881 42.5405 76.0281 42.4674 76.9786 42.4248V43.5767C76.1574 43.5767 74.9186 43.5904 74.1842 43.808C72.153 44.4562 70.9287 46.6311 70.9287 48.3155C70.9287 51.0955 73.5212 51.9749 75.8406 52.0611L75.4225 53.2698C72.7868 53.1562 69.7767 51.7435 69.7767 48.5611C69.7767 46.3424 71.1156 44.528 72.4268 43.7498C71.1737 43.8936 67.2842 44.2687 65.7431 44.5855L65.613 43.3167C66.1612 43.3031 66.6068 43.2749 66.8812 43.2448Z" fill="white"/>
<path d="M77.7849 46.7031L77.718 46.5573L76.9688 46.9031L77.0363 47.0487L77.1787 46.9767C76.83 46.2773 76.4081 45.5648 75.9387 44.9498L75.8118 45.0467L75.8787 45.1923L76.5987 44.8611L76.5318 44.7155L76.4025 44.8098C76.7419 45.2762 77.3043 46.1543 77.6443 46.7792L77.7849 46.7031L77.718 46.5573L77.7849 46.7031L77.9256 46.6261C77.575 45.9831 77.0124 45.1048 76.6612 44.6218L76.5843 44.5155L75.7449 44.9011L75.5632 44.9848L75.6843 45.1435C76.1374 45.7379 76.5512 46.4349 76.8924 47.1199L76.9619 47.2586L77.8518 46.8487L78.0075 46.7767L77.9256 46.6261L77.7849 46.7031ZM76.1432 47.3218L76.075 47.1767L75.3406 47.5224L75.4088 47.6674L75.5524 47.5979C75.218 46.9005 74.7974 46.1455 74.3563 45.5431L74.2275 45.6373L74.2905 45.7842L75.0249 45.4674L74.9619 45.3205L74.8305 45.4117C75.1556 45.8779 75.7032 46.7717 75.9987 47.3904L76.1432 47.3218L76.075 47.1767L76.1432 47.3218L76.2875 47.253C75.978 46.6061 75.43 45.7123 75.0931 45.2287L75.018 45.1218L74.1636 45.4904L73.98 45.5698L74.098 45.7317C74.5219 46.3104 74.9363 47.0523 75.2643 47.7362L75.3331 47.8792L76.2112 47.4667L76.3568 47.3979L76.2875 47.253L76.1432 47.3218ZM66.8812 43.2448L66.8956 43.4042C67.8324 43.3186 70.5256 43.0592 73.1468 42.828H73.1456C74.6987 42.7005 76.0368 42.6267 76.9856 42.5848L76.9787 42.4248H76.8187V43.5767H76.9787V43.4167C76.1531 43.4173 74.9137 43.4274 74.1387 43.6543L74.1374 43.6549L74.1356 43.6555C72.0225 44.3373 70.7737 46.5605 70.7688 48.3155C70.7649 49.7567 71.4556 50.7379 72.4312 51.3349C73.4056 51.9343 74.6574 52.1762 75.835 52.2205L75.8406 52.0611L75.6894 52.0087L75.2712 53.2179L75.4225 53.2698L75.4294 53.1104C74.1368 53.0549 72.7518 52.6779 71.7036 51.9355C70.655 51.1911 69.9387 50.0999 69.9368 48.5611C69.9331 46.4093 71.2449 44.6349 72.5081 43.8874L73.1512 43.5055L72.4081 43.5911C71.1563 43.7349 67.2712 44.1087 65.7105 44.4293L65.7432 44.5855L65.9019 44.5693L65.7724 43.3011L65.6131 43.3167L65.6174 43.4767C66.1688 43.4631 66.6168 43.4349 66.898 43.4042L66.8812 43.2448L66.8956 43.4042L66.8812 43.2448L66.8636 43.0861C66.5968 43.1149 66.1531 43.1431 65.6094 43.1573L65.4363 43.1618L65.5836 44.6024L65.6019 44.7779L65.775 44.7424C67.2974 44.4287 71.1905 44.0523 72.4449 43.9087L72.4268 43.7498L72.3449 43.6123C70.9862 44.4211 69.62 46.2749 69.6168 48.5611C69.6144 50.2048 70.4032 51.4111 71.5187 52.1967C72.6344 52.9848 74.0724 53.3711 75.4156 53.4298L75.535 53.4355L75.9918 52.113L76.0625 51.9093L75.8468 51.9011C74.7043 51.8592 73.5 51.6186 72.5987 51.0624C71.6987 50.5024 71.0924 49.6536 71.0888 48.3155C71.0843 46.7018 72.2836 44.5749 74.2331 43.9599L74.1843 43.808L74.23 43.9611C74.9236 43.7536 76.1625 43.7355 76.9787 43.7367H77.1387V42.4248V42.2573L76.9718 42.2648C76.0193 42.3074 74.6774 42.3811 73.1193 42.5093H73.1187C70.4963 42.7405 67.8019 42.9999 66.8668 43.0855L66.8649 43.0861H66.8636L66.8812 43.2448" fill="white"/>
<path d="M92.0881 49.2097H86.1832V52.4065C86.1832 53.1702 85.9524 53.4878 85.4193 53.6596C84.8856 53.8327 83.9636 53.8615 82.4524 53.8471C82.3656 53.5452 82.1636 53.069 81.9912 52.7815C83.2006 52.8252 84.3243 52.8097 84.6556 52.7959C84.9724 52.7959 85.1025 52.6959 85.1025 52.3921V49.2097H79.1819V48.1577H85.1025V45.8234H80.1475V44.8021H85.1025V42.5834C83.518 42.7566 81.89 42.8566 80.4062 42.9284C80.3632 42.6409 80.2337 42.2234 80.1324 41.9783C83.5318 41.8209 87.7094 41.4452 89.87 40.769L90.6768 41.619C89.4524 41.9921 87.8819 42.2658 86.1832 42.4678V44.8021H91.2819V45.8234H86.1832V48.1577H92.0881V49.2097" fill="white"/>
<path d="M92.0882 49.2093V49.0493H86.0233V52.4061C86.0233 52.773 85.9663 53.0117 85.8656 53.1693C85.7656 53.3254 85.6175 53.4261 85.3706 53.5067L85.3701 53.5074C84.9512 53.6448 84.2132 53.691 83.0613 53.6898C82.8706 53.6898 82.6682 53.6886 82.4538 53.6867L82.4525 53.8467L82.6063 53.8024C82.5132 53.4824 82.3119 53.0054 82.1288 52.6986L81.9912 52.7811L81.9856 52.9411C82.5844 52.963 83.162 52.9698 83.6338 52.9698C84.1181 52.9698 84.4901 52.9624 84.6626 52.9549L84.6557 52.7955V52.9555C84.8282 52.9542 84.9807 52.9317 85.1033 52.828C85.225 52.7205 85.2632 52.5624 85.2626 52.3917V49.0493H79.342V48.3173H85.2626V45.663H80.3076V44.9618H85.2626V42.4042L85.085 42.4235C83.5056 42.5966 81.8807 42.6962 80.3988 42.768L80.4063 42.928L80.5644 42.9042C80.5175 42.5942 80.3869 42.1766 80.2807 41.9173L80.1325 41.9779L80.14 42.1379C83.5476 41.9786 87.7226 41.6074 89.9181 40.9211L89.8701 40.7686L89.7545 40.8786L90.5607 41.7286L90.6768 41.6186L90.6301 41.4654C89.4213 41.8342 87.8575 42.1074 86.1637 42.308L86.0233 42.3248V44.9618H91.122V45.663H86.0233V48.3173H91.9282V49.2093H92.0882V49.0493V49.2093H92.2482V48.1573V47.9973H86.3433V45.983H91.442V44.8018V44.6418H86.3433V42.4674H86.1833L86.202 42.6261C87.9063 42.4235 89.4837 42.1498 90.7233 41.7717L90.9706 41.6962L89.9863 40.6586L89.9175 40.5861L89.8226 40.6162C87.6964 41.2835 83.5168 41.6618 80.1256 41.8179L79.8988 41.8286L79.985 42.0386C80.0807 42.2698 80.2095 42.6861 80.2482 42.9517L80.2695 43.0949L80.4138 43.088C81.8994 43.0162 83.5301 42.9155 85.1194 42.7418L85.1026 42.583H84.9426V44.6418H79.9876V45.823V45.983H84.9426V47.9973H79.022V49.2093V49.3693H84.9426V52.3917L84.8925 52.5867C84.8706 52.6086 84.8001 52.6362 84.6557 52.6355H84.6519H84.6488C84.485 52.6424 84.1144 52.6498 83.6338 52.6498C83.165 52.6498 82.5912 52.643 81.9968 52.6211L81.7026 52.6104L81.8545 52.8635C82.0164 53.1317 82.2181 53.608 82.2988 53.891L82.3312 54.0054L82.4506 54.0067C82.6656 54.0086 82.8695 54.0098 83.0613 54.0098C84.2232 54.0086 84.9719 53.971 85.4688 53.811V53.8117C85.7544 53.7205 85.9882 53.5762 86.1364 53.3405C86.2844 53.1048 86.3426 52.803 86.3433 52.4061V49.3693H92.2482V49.2093H92.0882" fill="white"/>
<path d="M99.1745 43.0877C100.731 43.347 103.611 43.2896 105.038 43.0877V44.269C103.51 44.4264 100.744 44.4264 99.1896 44.269L99.1745 43.0877ZM99.7369 48.9064C99.607 49.4251 99.5496 49.8283 99.5496 50.217C99.5496 50.8658 99.9814 51.5002 101.94 51.5002C103.222 51.5002 104.317 51.3845 105.47 51.1251L105.484 52.3346C104.604 52.5083 103.41 52.6234 101.926 52.6234C99.5345 52.6234 98.4689 51.8314 98.4689 50.4907C98.4689 49.972 98.5696 49.4107 98.6995 48.8064L99.7369 48.9064ZM96.4814 41.992C96.3945 42.2376 96.2651 42.6982 96.207 42.9576C95.9339 44.269 95.5158 46.817 95.5158 48.417C95.5158 49.1083 95.5444 49.6845 95.6313 50.377C95.8758 49.7283 96.1932 48.892 96.4233 48.3301L97.0433 48.7907C96.6833 49.8002 96.1638 51.3126 96.0345 51.9896C95.9913 52.1907 95.9627 52.4638 95.9627 52.6234L96.0057 53.1264L94.9689 53.1982C94.6808 52.1907 94.4502 50.549 94.4502 48.6189C94.4502 46.5158 94.9107 44.0677 95.0838 42.9002C95.1276 42.569 95.1844 42.1939 95.1844 41.892L96.4814 41.992" fill="white"/>
<path d="M99.1744 43.0876L99.1481 43.245C99.8937 43.3695 100.919 43.4207 101.951 43.4213C103.119 43.4213 104.29 43.3545 105.06 43.2457L105.037 43.0876H104.877V44.2689H105.037L105.021 44.1095C104.267 44.1876 103.196 44.2276 102.124 44.2269C101.051 44.2276 99.9737 44.1876 99.2049 44.1095L99.1894 44.2689L99.3494 44.2669L99.3344 43.0857L99.1744 43.0876L99.1481 43.245L99.1744 43.0876L99.0144 43.0895L99.0294 44.2706L99.0305 44.4132L99.1731 44.4282C99.9593 44.5076 101.043 44.5469 102.124 44.5469C103.205 44.5469 104.281 44.5076 105.054 44.4282L105.197 44.4132V43.0876V42.9033L105.015 42.9295C104.27 43.0345 103.106 43.1013 101.951 43.1013C100.931 43.1013 99.9144 43.0489 99.2006 42.9295L99.0118 42.8981L99.0144 43.0895L99.1744 43.0876ZM99.7368 48.9063L99.5812 48.8676C99.45 49.3938 99.3894 49.8119 99.3894 50.2169C99.3849 50.5751 99.5206 50.9669 99.92 51.2345C100.317 51.502 100.944 51.6588 101.94 51.6601C103.231 51.6601 104.341 51.5433 105.504 51.2813L105.469 51.125L105.309 51.1269L105.324 52.3364L105.484 52.3345L105.452 52.1775C104.587 52.3482 103.401 52.4637 101.926 52.4633C100.747 52.4644 99.9112 52.2657 99.3875 51.9257C98.8656 51.5837 98.6324 51.1188 98.6288 50.4906C98.6288 49.9925 98.7262 49.4413 98.8556 48.8401L98.6993 48.8063L98.6836 48.9657L99.7212 49.0657L99.7368 48.9063L99.5812 48.8676L99.7368 48.9063L99.7518 48.7469L98.7144 48.6469L98.5724 48.6332L98.5425 48.7725C98.4124 49.3807 98.3088 49.9513 98.3088 50.4906C98.3049 51.2026 98.6043 51.805 99.2137 52.1945C99.8206 52.585 100.713 52.7826 101.926 52.7833C103.417 52.7833 104.622 52.6676 105.514 52.4913L105.645 52.4657L105.629 51.1233L105.627 50.9257L105.434 50.9689C104.293 51.2257 103.212 51.3401 101.94 51.3401C100.977 51.3413 100.409 51.1813 100.1 50.9695C99.7937 50.7575 99.7131 50.5082 99.7094 50.2169C99.7094 49.8444 99.7643 49.4564 99.8918 48.945L99.9368 48.765L99.7518 48.7469L99.7368 48.9063ZM96.4812 41.9919L96.3305 41.9388C96.24 42.1951 96.1112 42.6545 96.0505 42.9233V42.9237V42.925C95.7756 44.245 95.3563 46.7925 95.3556 48.4169C95.3556 49.1119 95.3849 49.6975 95.4724 50.3964L95.5524 51.0381L95.7812 50.4332C96.0249 49.785 96.3425 48.9495 96.5712 48.3906L96.4232 48.33L96.3281 48.4581L96.9475 48.9188L97.0432 48.7906L96.8924 48.7369C96.5312 49.7506 96.0124 51.2569 95.8774 51.9588L96.0344 51.9895L95.878 51.9557C95.8324 52.1719 95.8032 52.4463 95.8025 52.6233V52.63L95.8318 52.9781L94.9574 53.0388L94.9688 53.1981L95.1225 53.1545C94.84 52.1682 94.6094 50.5351 94.61 48.6188C94.6094 46.5369 95.0681 44.0957 95.2419 42.9233V42.9226L95.2425 42.9213C95.2856 42.5913 95.3436 42.2132 95.3443 41.8919H95.1843L95.1718 42.0519L96.4688 42.1519L96.4812 41.9919L96.3305 41.9388L96.4812 41.9919L96.4937 41.8325L95.1968 41.7325L95.0243 41.7194V41.8919C95.0249 42.1745 94.9694 42.5463 94.9249 42.8788L95.0836 42.9001L94.9249 42.8769C94.7537 44.0388 94.29 46.4945 94.29 48.6188C94.2905 50.562 94.5212 52.2132 94.815 53.2426L94.8505 53.3669L96.0163 53.2863L96.1787 53.2751L96.1219 52.61L95.9625 52.6233H96.1225C96.1219 52.4813 96.1505 52.2095 96.1905 52.0226L96.1912 52.0207V52.0194C96.3156 51.3682 96.8344 49.8495 97.1937 48.8444L97.2337 48.7332L96.5187 48.2013L96.3537 48.0781L96.2756 48.2689C96.0436 48.8351 95.7262 49.6713 95.4819 50.3201L95.6312 50.3769L95.79 50.3569C95.7043 49.6713 95.6756 49.1037 95.6756 48.4169C95.675 46.842 96.0912 44.2919 96.3636 42.9906L96.2068 42.9575L96.3632 42.9925C96.4187 42.7426 96.5488 42.2801 96.6318 42.0457L96.7019 41.8489L96.4937 41.8325L96.4812 41.9919" fill="white"/>
<path d="M114.667 41.619C114.667 44.1678 114.998 49.5984 120.644 52.9553C120.4 53.1265 119.967 53.5878 119.779 53.8472C116.236 51.7022 114.709 48.5472 114.061 45.8235C112.996 49.5553 111.181 52.1771 108.314 53.8616C108.112 53.6453 107.637 53.1984 107.349 53.0128C110.532 51.3553 112.304 48.4597 113.183 44.4265L113.817 44.5285C113.716 43.8659 113.657 43.2315 113.63 42.6846H110.086V41.619H114.667Z" fill="white"/>
<path d="M114.668 41.6188H114.508C114.504 44.1775 114.845 49.6944 120.562 53.0919L120.644 52.9551L120.551 52.8237C120.278 53.0194 119.854 53.4744 119.65 53.7532L119.779 53.8469L119.863 53.71C116.363 51.5906 114.86 48.4832 114.217 45.7863L114.075 45.1912L113.907 45.7794C112.847 49.485 111.061 52.06 108.233 53.7232L108.314 53.8613L108.431 53.7519C108.219 53.5256 107.749 53.082 107.436 52.8781L107.349 53.0125L107.423 53.1544C110.657 51.4725 112.458 48.5194 113.339 44.4607L113.183 44.4263L113.157 44.5844L113.792 44.6863L114.009 44.7207L113.976 44.5037C113.875 43.8476 113.817 43.2181 113.789 42.6764L113.782 42.5244H110.246V41.7788H114.668V41.6188H114.508H114.668V41.4588H109.926V42.6844V42.8444H113.63V42.6844L113.47 42.6925C113.498 43.2444 113.556 43.8837 113.659 44.5525L113.817 44.5282L113.843 44.37L113.208 44.2688L113.059 44.2444L113.026 44.3925C112.151 48.3994 110.409 51.2368 107.276 52.8706L107.031 52.9975L107.263 53.1469C107.525 53.3151 108.006 53.7644 108.197 53.97L108.284 54.0637L108.395 53.9988C111.302 52.2932 113.144 49.6244 114.215 45.8676L114.061 45.8232L113.905 45.8607C114.559 48.6106 116.109 51.8125 119.697 53.9837L119.823 54.06L119.909 53.9407C120.081 53.7007 120.521 53.2338 120.736 53.0856L120.937 52.9432L120.726 52.8168C115.152 49.5026 114.83 44.1568 114.828 41.6188V41.4588H114.668V41.6188" fill="white"/>
<path d="M134.672 51.6435C133.923 52.4061 133.03 52.8386 132.05 52.8386C131.114 52.8386 130.465 52.2042 130.465 51.0231C130.465 49.4386 130.998 47.0917 130.998 45.7093C130.998 44.8874 130.581 44.5424 129.861 44.5424C128.708 44.5424 126.979 45.8811 125.669 47.2936C125.64 47.8979 125.627 48.4592 125.627 48.9635C125.627 50.2611 125.627 51.1248 125.683 52.4061C125.698 52.6511 125.727 53.0123 125.756 53.2698H124.503C124.517 53.0687 124.545 52.6511 124.545 52.4218C124.559 51.053 124.559 50.3467 124.589 48.7624C124.589 48.6186 124.603 48.4311 124.603 48.2155C123.91 49.2674 122.975 50.6343 122.284 51.5855L121.563 50.5917C122.356 49.5979 123.998 47.3792 124.719 46.2562C124.747 45.7955 124.777 45.3343 124.804 44.8874C124.156 44.9592 122.917 45.1323 122.025 45.2487L121.909 44.0511C122.227 44.0674 122.5 44.0674 122.845 44.0373C123.306 44.0093 124.142 43.9231 124.877 43.808C124.92 43.1298 124.949 42.6261 124.949 42.4674C124.949 42.1362 124.963 41.7624 124.89 41.4018L126.259 41.4448C126.187 41.7904 126.072 42.5967 125.972 43.5904L126.043 43.5624L126.461 44.0674C126.289 44.3261 126.043 44.7155 125.828 45.0611C125.798 45.3205 125.784 45.5936 125.756 45.8674C126.863 44.8448 128.694 43.4767 130.12 43.4767C131.459 43.4767 132.136 44.2248 132.136 45.3917C132.136 46.8167 131.603 49.2811 131.603 50.7218C131.603 51.2104 131.834 51.5855 132.339 51.5855C133.057 51.5855 133.822 51.1248 134.484 50.4042L134.672 51.6435" fill="white"/>
<path d="M134.672 51.6434L134.558 51.5316C133.831 52.2703 132.981 52.6778 132.05 52.6785C131.195 52.666 130.641 52.146 130.626 51.023C130.624 49.4673 131.156 47.1241 131.158 45.7092C131.159 45.2735 131.046 44.931 130.811 44.703C130.576 44.4748 130.244 44.3817 129.861 44.3823C128.596 44.3978 126.884 45.7617 125.551 47.1847L125.512 47.2279L125.509 47.286C125.481 47.8929 125.467 48.4561 125.467 48.9634C125.467 50.2604 125.467 51.1286 125.523 52.4129V52.4148V52.4161C125.539 52.6634 125.567 53.0254 125.598 53.2886L125.756 53.2697V53.1097H124.503V53.2697L124.663 53.281C124.677 53.0778 124.705 52.6623 124.705 52.4217H124.545L124.705 52.4234C124.719 51.0535 124.719 50.3486 124.749 48.7654L124.75 48.7634V48.7623C124.749 48.6286 124.763 48.4378 124.763 48.2154V47.681L124.47 48.1273C123.779 49.1766 122.843 50.5434 122.155 51.4916L122.284 51.5854L122.414 51.4916L121.694 50.4978L121.564 50.5916L121.69 50.6916C122.486 49.6916 124.126 47.4761 124.854 46.3423L124.876 46.3073L124.878 46.2654C124.906 45.8054 124.936 45.3441 124.964 44.8972L124.976 44.7073L124.787 44.7286C124.134 44.801 122.896 44.9742 122.004 45.0897L122.025 45.2486L122.184 45.2329L122.069 44.0361L121.91 44.051L121.901 44.211L122.295 44.2217C122.474 44.2217 122.655 44.2142 122.859 44.1966L122.845 44.0372L122.855 44.1972C123.323 44.1686 124.161 44.0823 124.901 43.9654L125.028 43.9454L125.036 43.8178C125.08 43.1372 125.108 42.6385 125.109 42.4673L125.11 42.1604C125.11 41.9103 125.103 41.6404 125.048 41.3692L124.891 41.4017L124.886 41.561L126.254 41.6047L126.259 41.4447L126.103 41.4122C126.029 41.7697 125.913 42.5761 125.813 43.5742L125.786 43.8348L125.994 43.7535L126.338 44.1692L126.461 44.0673L126.328 43.9785C126.154 44.241 125.908 44.6297 125.693 44.9761L125.673 45.0066L125.67 45.0423C125.639 45.3086 125.625 45.5823 125.597 45.8503L125.554 46.271L125.865 45.9847C126.955 44.9703 128.79 43.6254 130.121 43.6366C131.396 43.6542 131.958 44.291 131.976 45.3916C131.978 46.7866 131.445 49.251 131.443 50.7217C131.443 50.9903 131.506 51.2423 131.656 51.4354C131.805 51.6297 132.048 51.7479 132.339 51.7454C133.129 51.743 133.921 51.251 134.602 50.5129L134.484 50.4041L134.326 50.4286L134.514 51.6673L134.672 51.6434L134.558 51.5316L134.672 51.6434L134.83 51.6198L134.643 50.3804L134.593 50.0503L134.367 50.2961C133.723 50.9985 132.988 51.4286 132.339 51.4254C131.933 51.4166 131.779 51.1692 131.763 50.7217C131.761 49.311 132.294 46.8473 132.296 45.3916C132.297 44.7785 132.116 44.2516 131.743 43.883C131.37 43.5129 130.818 43.3154 130.121 43.3166C128.598 43.3273 126.773 44.7204 125.648 45.7492L125.756 45.8673L125.916 45.8834C125.944 45.6047 125.958 45.3316 125.987 45.0791L125.828 45.061L125.964 45.1454C126.179 44.801 126.424 44.4116 126.594 44.1554L126.66 44.0566L126.167 43.4604L126.093 43.371L125.914 43.4417L125.972 43.5903L126.131 43.6066C126.231 42.6172 126.347 41.811 126.416 41.4778L126.455 41.291L124.896 41.2417L124.694 41.2348L124.734 41.4335C124.782 41.6686 124.79 41.9172 124.79 42.1604L124.789 42.4673C124.789 42.6142 124.761 43.1217 124.717 43.7972L124.877 43.8079L124.852 43.6497C124.124 43.7641 123.29 43.8497 122.836 43.8772L122.834 43.8778H122.832C122.636 43.8948 122.465 43.9017 122.295 43.9017L121.918 43.8916L121.733 43.8823L121.866 45.2634L121.882 45.4279L122.046 45.4066C122.939 45.291 124.179 45.1178 124.823 45.046L124.804 44.8873L124.645 44.8772C124.617 45.3241 124.588 45.7847 124.559 46.246L124.719 46.2561L124.584 46.1697C123.871 47.283 122.227 49.5047 121.439 50.4922L121.363 50.5873L122.155 51.6798L122.284 51.8578L122.414 51.6798C123.107 50.7247 124.043 49.3572 124.737 48.3034L124.603 48.2154H124.443C124.443 48.4241 124.43 48.6086 124.43 48.7623H124.59L124.43 48.7591C124.399 50.3447 124.399 51.0522 124.385 52.4198V52.4204V52.4217C124.386 52.6404 124.358 53.0591 124.344 53.2591L124.331 53.4297H125.756H125.936L125.915 53.2516C125.886 52.9991 125.858 52.6385 125.843 52.3961L125.683 52.406L125.843 52.3991C125.787 51.121 125.787 50.261 125.787 48.9634C125.787 48.4623 125.801 47.9034 125.829 47.301L125.669 47.2935L125.786 47.4023C127.076 46.0004 128.819 44.686 129.861 44.7023C130.198 44.7023 130.434 44.7823 130.588 44.9322C130.742 45.0817 130.838 45.323 130.838 45.7092C130.841 47.0598 130.308 49.4103 130.306 51.023C130.305 51.6423 130.476 52.1391 130.789 52.4817C131.1 52.8247 131.547 52.9998 132.05 52.9985C133.078 52.9991 134.016 52.5417 134.786 51.7554L134.842 51.6985L134.83 51.6198L134.672 51.6434" fill="white"/>
<path d="M141.728 49.9438C141.268 49.8427 140.806 49.8001 140.331 49.8001C138.861 49.8001 138.027 50.3033 138.027 51.0814C138.027 51.8733 138.819 52.3064 140.188 52.3064C141.238 52.3064 141.743 51.8158 141.743 50.8376C141.743 50.6064 141.728 50.3033 141.728 49.9438ZM142.708 45.5501C142.708 46.4857 142.78 47.8689 142.851 49.1083C144.682 49.6126 146.251 50.6064 147.288 51.5427L146.597 52.6083C145.69 51.6857 144.378 50.7795 142.896 50.2614C142.91 50.6345 142.923 50.9513 142.923 51.2107C142.923 52.3782 142.203 53.3857 140.302 53.3857C138.344 53.3857 136.888 52.7533 136.888 51.1251C136.888 49.8427 138.013 48.7769 140.475 48.7769C140.878 48.7769 141.281 48.8064 141.684 48.8638C141.627 47.7107 141.57 46.4001 141.57 45.5501C141.57 44.7301 141.57 43.5489 141.555 42.9438C141.541 42.4251 141.497 41.8045 141.441 41.5313H142.823C142.766 41.8345 142.722 42.5107 142.708 42.9438C142.694 43.3326 142.708 43.8365 142.708 44.3982C143.845 44.3689 145.645 44.2969 146.928 44.1251L146.971 45.2189C145.703 45.3345 143.875 45.4208 142.708 45.4501V45.5501" fill="white"/>
<path d="M141.728 49.9437L141.762 49.7876C141.289 49.6833 140.815 49.6401 140.331 49.6401C139.578 49.6407 138.977 49.7669 138.549 50.01C138.12 50.2489 137.863 50.6313 137.867 51.0813C137.862 51.5338 138.108 51.9069 138.515 52.1306C138.922 52.3575 139.486 52.4657 140.187 52.4663C140.735 52.4663 141.17 52.3381 141.469 52.0545C141.767 51.7706 141.903 51.3519 141.902 50.8375C141.902 50.6001 141.888 50.2994 141.888 49.9437V49.8151L141.762 49.7876L141.728 49.9437H141.568C141.568 50.3069 141.582 50.6125 141.582 50.8375C141.581 51.3013 141.464 51.6169 141.248 51.8226C141.032 52.0295 140.689 52.1457 140.187 52.1463C139.52 52.1469 139.003 52.0381 138.672 51.8513C138.341 51.6607 138.19 51.4213 138.187 51.0813C138.189 50.7532 138.35 50.4951 138.706 50.2882C139.062 50.0844 139.614 49.9594 140.331 49.9601C140.797 49.9601 141.245 50.0013 141.694 50.1001L141.728 49.9437H141.568H141.728ZM142.708 45.55H142.548C142.548 46.4932 142.62 47.8769 142.692 49.1169L142.698 49.2313L142.809 49.262C144.609 49.7581 146.161 50.7407 147.181 51.6613L147.288 51.5426L147.153 51.4551L146.462 52.5207L146.597 52.6082L146.71 52.4957C145.785 51.5569 144.457 50.6388 142.948 50.11L142.727 50.0325L142.735 50.2669C142.749 50.6413 142.763 50.9575 142.763 51.2106C142.746 52.3063 142.144 53.2076 140.302 53.2257C139.339 53.2269 138.511 53.0682 137.942 52.7289C137.374 52.3857 137.052 51.89 137.047 51.125C137.05 49.9551 138.049 48.9495 140.475 48.9369C140.87 48.9369 141.265 48.9657 141.662 49.0226L141.854 49.05L141.844 48.8564C141.786 47.7044 141.73 46.3938 141.73 45.55C141.73 44.7295 141.73 43.5489 141.714 42.9394C141.7 42.4132 141.657 41.7969 141.597 41.4988L141.44 41.5313V41.6913H142.823V41.5313L142.666 41.5013C142.605 41.8269 142.562 42.4988 142.548 42.9388V42.9381C142.543 43.0706 142.542 43.2151 142.542 43.3689C142.542 43.6769 142.548 44.025 142.548 44.3981V44.5626L142.712 44.5581C143.852 44.5289 145.654 44.4569 146.949 44.2837L146.928 44.125L146.768 44.1313L146.811 45.225L146.971 45.2188L146.957 45.0594C145.694 45.1745 143.867 45.2607 142.703 45.29L142.548 45.2945V45.55H142.708H142.868V45.45H142.708L142.712 45.61C143.882 45.5801 145.712 45.4945 146.987 45.3781L147.137 45.3644L147.088 44.1188L147.081 43.9433L146.907 43.9663C145.637 44.1369 143.838 44.2089 142.703 44.2388L142.708 44.3981H142.868C142.868 44.022 142.862 43.6725 142.862 43.3689C142.862 43.2169 142.863 43.0764 142.867 42.9495L142.868 42.9476L142.867 42.9489C142.881 42.5233 142.926 41.842 142.98 41.5613L143.017 41.3713H141.44H141.244L141.283 41.5637C141.336 41.8125 141.381 42.4369 141.395 42.9482C141.41 43.5482 141.41 44.73 141.41 45.55C141.41 46.4063 141.467 47.7175 141.524 48.8719L141.684 48.8637L141.707 48.7057C141.297 48.6469 140.885 48.6164 140.475 48.6169C139.221 48.6169 138.29 48.8869 137.663 49.3401C137.036 49.7919 136.725 50.4364 136.727 51.125C136.723 51.9882 137.129 52.6226 137.779 53.0037C138.427 53.3876 139.305 53.545 140.302 53.5457C141.279 53.5463 141.98 53.2857 142.436 52.8519C142.891 52.4188 143.084 51.8263 143.083 51.2106C143.083 50.9457 143.069 50.6282 143.055 50.2551L142.895 50.2613L142.842 50.4119C144.297 50.9207 145.592 51.8151 146.483 52.7201L146.622 52.862L147.422 51.6295L147.496 51.5151L147.395 51.4237C146.341 50.4719 144.753 49.4669 142.894 48.9538L142.851 49.1082L143.011 49.0988C142.939 47.8607 142.867 46.4781 142.868 45.55H142.708" fill="white"/>
<path d="M158.378 42.208L158.206 43.3166C156.621 43.2166 153.741 42.928 152.126 42.6405L152.314 41.5448C153.885 41.9061 156.981 42.1936 158.378 42.208V42.208ZM155.858 45.9248C154.216 45.9248 152.819 46.4142 151.968 46.6592C151.536 46.7749 151.118 46.9467 150.773 47.0766L150.413 45.751C150.802 45.7093 151.293 45.6218 151.709 45.5362C152.717 45.3061 154.346 44.8448 155.973 44.8448C158.003 44.8448 159.515 45.983 159.515 48.0142C159.515 51.1104 156.766 52.8674 153.062 53.4155L152.386 52.3205C155.843 51.8874 158.293 50.5342 158.293 47.9698C158.293 46.7749 157.326 45.9248 155.858 45.9248" fill="white"/>
<path d="M158.377 42.2083L158.221 42.1834L158.048 43.2926L158.206 43.317L158.216 43.1576C156.637 43.0582 153.757 42.769 152.155 42.4834L152.126 42.6408L152.285 42.6677L152.472 41.5726L152.313 41.5451L152.278 41.7014C153.872 42.0664 156.963 42.3526 158.376 42.3683L158.377 42.2083L158.221 42.1834L158.377 42.2083L158.379 42.0483C157 42.0352 153.897 41.7458 152.35 41.3896L152.185 41.3514L151.969 42.6139L151.942 42.7701L152.099 42.7982C153.725 43.0877 156.603 43.3765 158.197 43.477L158.342 43.4864L158.536 42.2326L158.565 42.0496L158.379 42.0483L158.377 42.2083ZM155.857 45.9251V45.7651C154.185 45.7651 152.768 46.2634 151.925 46.5058L151.968 46.6595L151.928 46.5051C151.481 46.6238 151.059 46.7989 150.717 46.927L150.773 47.077L150.928 47.0346L150.566 45.7096L150.413 45.7514L150.43 45.9107C150.827 45.8677 151.321 45.7795 151.742 45.6926H151.744L151.745 45.692C152.758 45.4602 154.374 45.0051 155.973 45.0051C157.947 45.0182 159.347 46.0758 159.355 48.0146C159.353 49.5139 158.697 50.6714 157.579 51.5445C156.461 52.4152 154.872 52.9864 153.038 53.2576L153.062 53.4158L153.198 53.3314L152.521 52.2365L152.385 52.3208L152.406 52.4789C154.15 52.2602 155.648 51.8114 156.726 51.077C157.803 50.3458 158.454 49.3058 158.453 47.9701C158.453 47.3296 158.189 46.7677 157.729 46.3776C157.27 45.9864 156.622 45.7651 155.857 45.7651V45.9251V46.0851C157.269 46.0952 158.128 46.8726 158.133 47.9701C158.129 49.1989 157.557 50.1182 156.545 50.8126C155.534 51.5038 154.08 51.9477 152.366 52.1621L152.118 52.1926L152.926 53.4995L152.982 53.5896L153.086 53.5739C154.955 53.2965 156.593 52.7152 157.776 51.797C158.958 50.8808 159.678 49.6114 159.675 48.0146C159.677 46.9589 159.278 46.1139 158.609 45.5464C157.942 44.9776 157.017 44.6851 155.973 44.6851C154.317 44.6858 152.675 45.1526 151.673 45.3802L151.709 45.5365L151.677 45.3795C151.264 45.4645 150.776 45.5514 150.395 45.5926L150.209 45.6126L150.619 47.1189L150.665 47.2883L150.83 47.2264C151.177 47.0952 151.59 46.9258 152.009 46.8139H152.011L152.013 46.8133C152.87 46.5651 154.246 46.0851 155.857 46.0851V45.9251" fill="white"/>
</g>
<defs>
<linearGradient id="paint0_linear" x1="34.8797" y1="13.9353" x2="8.02766" y2="40.7873" gradientUnits="userSpaceOnUse">
<stop stop-color="#00A0FF"/>
<stop offset="0.00657445" stop-color="#00A1FF"/>
<stop offset="0.2601" stop-color="#00BEFF"/>
<stop offset="0.5122" stop-color="#00D2FF"/>
<stop offset="0.7604" stop-color="#00DFFF"/>
<stop offset="1" stop-color="#00E3FF"/>
</linearGradient>
<linearGradient id="paint1_linear" x1="54.1351" y1="32.0023" x2="15.4199" y2="32.0023" gradientUnits="userSpaceOnUse">
<stop stop-color="#FFE000"/>
<stop offset="0.4087" stop-color="#FFBD00"/>
<stop offset="0.7754" stop-color="#FFA500"/>
<stop offset="1" stop-color="#FF9C00"/>
</linearGradient>
<linearGradient id="paint2_linear" x1="39.7231" y1="35.674" x2="3.30982" y2="72.0873" gradientUnits="userSpaceOnUse">
<stop stop-color="#FF3A44"/>
<stop offset="1" stop-color="#C31162"/>
</linearGradient>
<linearGradient id="paint3_linear" x1="11.6756" y1="0.282108" x2="27.9356" y2="16.5421" gradientUnits="userSpaceOnUse">
<stop stop-color="#32A071"/>
<stop offset="0.0685" stop-color="#2DA771"/>
<stop offset="0.4762" stop-color="#15CF74"/>
<stop offset="0.8009" stop-color="#06E775"/>
<stop offset="1" stop-color="#00F076"/>
</linearGradient>
<linearGradient id="paint4_linear" x1="54.1347" y1="32.0023" x2="15.4201" y2="32.0023" gradientUnits="userSpaceOnUse">
<stop stop-color="#CCB300"/>
<stop offset="0.4087" stop-color="#CC9700"/>
<stop offset="0.7754" stop-color="#CC8400"/>
<stop offset="1" stop-color="#CC7D00"/>
</linearGradient>
<linearGradient id="paint5_linear" x1="39.7232" y1="35.6741" x2="3.3099" y2="72.0873" gradientUnits="userSpaceOnUse">
<stop stop-color="#CC2E36"/>
<stop offset="1" stop-color="#9C0E4E"/>
</linearGradient>
<linearGradient id="paint6_linear" x1="34.8797" y1="13.9356" x2="8.02765" y2="40.7876" gradientUnits="userSpaceOnUse">
<stop stop-color="#008DE0"/>
<stop offset="0.00657445" stop-color="#008DE0"/>
<stop offset="0.2601" stop-color="#00A7E0"/>
<stop offset="0.5122" stop-color="#00B8E0"/>
<stop offset="0.7604" stop-color="#00C4E0"/>
<stop offset="1" stop-color="#00C7E0"/>
</linearGradient>
<linearGradient id="paint7_linear" x1="39.7235" y1="35.6738" x2="3.31015" y2="72.0876" gradientUnits="userSpaceOnUse">
<stop stop-color="#E0333C"/>
<stop offset="1" stop-color="#AB0F56"/>
</linearGradient>
<linearGradient id="paint8_linear" x1="54.1351" y1="32.0025" x2="15.4199" y2="32.0025" gradientUnits="userSpaceOnUse">
<stop stop-color="#E0C500"/>
<stop offset="0.4087" stop-color="#E0A600"/>
<stop offset="0.7754" stop-color="#E09100"/>
<stop offset="1" stop-color="#E08900"/>
</linearGradient>
<linearGradient id="paint9_linear" x1="54.135" y1="32.0023" x2="15.4198" y2="32.0023" gradientUnits="userSpaceOnUse">
<stop stop-color="#FFE840"/>
<stop offset="0.4087" stop-color="#FFCE40"/>
<stop offset="0.7754" stop-color="#FFBC40"/>
<stop offset="1" stop-color="#FFB540"/>
</linearGradient>
<linearGradient id="paint10_linear" x1="34.8796" y1="13.9358" x2="8.02766" y2="40.7877" gradientUnits="userSpaceOnUse">
<stop stop-color="#40B8FF"/>
<stop offset="0.00657445" stop-color="#40B9FF"/>
<stop offset="0.2601" stop-color="#40CEFF"/>
<stop offset="0.5122" stop-color="#40DDFF"/>
<stop offset="0.7604" stop-color="#40E7FF"/>
<stop offset="1" stop-color="#40EAFF"/>
</linearGradient>
<linearGradient id="paint11_linear" x1="11.6757" y1="0.282018" x2="27.9357" y2="16.542" gradientUnits="userSpaceOnUse">
<stop stop-color="#65B895"/>
<stop offset="0.0685" stop-color="#62BD95"/>
<stop offset="0.4762" stop-color="#50DB97"/>
<stop offset="0.8009" stop-color="#44ED98"/>
<stop offset="1" stop-color="#40F498"/>
</linearGradient>
<clipPath id="clip0">
<rect width="216" height="64" fill="white"/>
</clipPath>
</defs>
</svg>
